<?xml version="1.0" encoding="UTF-8"?> <!-- Generator: Adobe Illustrator 24.1.1, SVG Export Plug-In . SVG Version: 6.00 Build 0) --> <svg xmlns="http://www.w3.org/2000/svg" xmlns:xlink="http://www.w3.org/1999/xlink" version="1.1" id="Livello_1" x="0px" y="0px" viewBox="0 0 816.1 199.4" style="enable-background:new 0 0 816.1 199.4;" xml:space="preserve"> <style type="text/css"> .st0{fill:#B079B3;} .st1{fill:#00B5E5;} .st2{fill:#6AC2BF;} .st3{fill:#6AB651;} .st4{fill:#FFD600;} .st5{fill:#F28E00;} .st6{fill:#E73B2B;} .st7{fill:#FFFFFF;} .st8{fill:#192A67;} </style> <path class="st0" d="M126.8,58.4C57,58.4,0.4,114.7,0,184.5h12.2c0-63.3,51.3-114.6,114.6-114.6s114.6,51.3,114.6,114.6h12.2 C253.1,114.8,196.5,58.5,126.8,58.4z"></path> <path class="st1" d="M126.8,69.9C63.5,69.9,12.2,121.2,12.2,184.5h12.2C24.3,127.9,70.1,82,126.7,82s102.4,45.8,102.5,102.4 c0,0,0,0,0,0.1h12.2C241.3,121.2,190,69.9,126.8,69.9z"></path> <path class="st2" d="M126.8,82C70.2,82,24.3,127.9,24.3,184.5l0,0h12.2c0-49.9,40.4-90.3,90.3-90.2c49.8,0,90.2,40.4,90.2,90.2h12.2 C229.2,127.9,183.3,82,126.8,82z"></path> <path class="st3" d="M126.8,94.2c-49.8,0.1-90.2,40.4-90.3,90.3h12.2c0-43.1,35-78.1,78.1-78.1c43.1,0,78.1,35,78.1,78.1H217 C217,134.6,176.6,94.2,126.8,94.2z"></path> <path class="st4" d="M126.8,106.4c-43.1,0-78.1,35-78.1,78.1h12.2c1.3-36.4,32-64.9,68.4-63.5c34.5,1.3,62.2,29,63.5,63.5h12.1 C204.8,141.3,169.9,106.4,126.8,106.4z"></path> <path class="st5" d="M126.8,118.5c-36.4,0-66,29.6-65.9,66H73c0.4-29.7,24.8-53.5,54.5-53.1c29.1,0.4,52.7,23.9,53.1,53.1h12.2 C192.7,148.1,163.2,118.5,126.8,118.5z"></path> <path class="st6" d="M126.8,130.7c-29.7,0-53.7,24.1-53.8,53.8h12.2c0-23,18.6-41.6,41.6-41.7s41.6,18.6,41.7,41.6c0,0,0,0,0,0h12.2 C180.5,154.8,156.4,130.7,126.8,130.7z"></path> <path class="st7" d="M204.9,90.2c3,23.9-5.7,37.9-11.4,47.2c-0.7,1.1-1.3,2.2-1.9,3.1c0,3.5-0.8,28.5-22.6,48.2 c-9.7,8.8-15.5,11.6-18.6,9.4c-1.8-1.3-2.1-4-1.8-7.3c-1.5,2.4-3.3,4.6-5.4,6.6c-1.8,1.7-3.4,2.2-4.7,1.4c-2.4-1.3-2.6-7.2-2-13 c-3.1,6.9-6.3,12.5-8.5,12.6c-0.8,0-1.6-0.3-2.1-1c-1.6-2-1.5-8-0.7-14.4c-1.3,3.3-2.9,6.8-4.7,10.5c-1.4,2.7-3.5,6.2-6.4,5.7 c-3.1-0.6-4.8-6.4-5.7-11.3c-2.1,3.6-4.9,6.7-8.3,9.2c-0.8,0.6-3.2,2.5-5.1,1.1c-2.3-1.7-1.3-7.8,0.4-13.6c-3.9,4.3-8.1,8.3-12.5,12 c-1.6,1.4-3.4,2.7-4.9,2.7c-0.5,0-1-0.2-1.3-0.5c-1.2-1-2-2.9,3.1-14.2c1.2-2.5,2.4-5,3.4-7c-3.8,1.9-9.7,4.1-15.3,2.9 c-4.1-0.9-7.3-3.5-9.6-7.6c-0.2-0.4-0.2-0.9,0-1.3c0.2-0.4,0.7-0.7,1.2-0.6c0.1,0,9.2,0.2,20.7-5.1c9.8-4.6,23.3-14.2,33.9-34.3 c-7,5.2-20,13.5-27.3,9.8c-3.3-1.7-4.9-5.4-5-11.2c-3.5,2-10.5,5.2-14.6,2.6c-2.3-1.5-3.2-4.4-2.8-8.7c-6.1,2.4-16.4,5.8-18.8,2.1 c-1.3-2-0.9-5.7,10.3-16.6c-7.3,3.3-15.3,5.9-17.2,3.1c-1.1-1.6-0.9-4.3,6.9-12.5c-4.7,2.4-10,4.6-12.5,4c-1.2-0.2-2.2-1.1-2.6-2.2 c-0.9-2.4,1.1-5.5,1.6-6.3c0.9-1.6,14.5-23.8,58.3-36.1c36.7-10.3,62.5-2.7,69.1-0.3c0.3-1.9,0.5-3.7,0.7-5.4 c3.1-22.9,4.5-26.6,31.4-27c-0.4-1.1-0.7-2.2-0.9-3.3c-16.3-7.7-15.7-9.2-15.3-10.3c0.5-1.3,1.6-1.8,9.1,0.2 c-1.7-13-0.3-13.3,0.8-13.5c1.4-0.3,2.5,0.1,6.1,11.1L194.1,1c0.2-0.7,0.9-1.1,1.6-0.9c0.4,0.1,0.7,0.4,0.9,0.8 c1.3,3.2,2.4,6.4,3.3,9.7c0.6,0,1.3,0.1,2,0.2c2.2,0.3,3.4,1.1,3.6,2.4c0.6,3.2-7.1,7.7-12.4,10.4c0.3,1.2,0.6,2.3,1,3.4h2.8 c0.1,0,0.2,0,0.3,0h0.1c0.1,0,0.3,0.1,0.4,0.2l0.1,0.1c0.1,0.1,0.2,0.2,0.3,0.3l0.1,0.1l0,0v0.1c0.1,0.1,0.1,0.2,0.1,0.4 c0,0,0,0.1,0,0.1c0,0.1,0,0.2,0,0.4v0.1c0,0.1-0.1,0.2-0.2,0.3c0,0,0,0.1,0,0.1l0,0c-0.7,0.9-1.3,1.9-1.8,2.9c2.2,5,4.7,9.5,4.8,9.6 c0.4,0.6,0.1,1.4-0.5,1.8c0,0,0,0,0,0c-0.2,0.1-0.4,0.2-0.6,0.2c-0.5,0-0.9-0.3-1.1-0.7c-0.1-0.3-2-3.5-3.9-7.5 c-1,2.8-1.2,5.7-0.7,8.6c0.4,1.9,1.3,5.3,2.5,9.7C199.3,63.7,203.4,78.8,204.9,90.2z"></path> <path class="st7" d="M138,143.6c0,0-3.4,3.3-8.4,21.7"></path> <path class="st7" d="M78,199.1c-0.4,0-0.8-0.1-1.2-0.4c-1.2-1-1.6-3.3,3.2-13.9c1-2.1,2.1-4.5,3.4-7l0.4-0.8l-0.8,0.4 c-3.6,2-7.6,3.1-11.8,3.2c-1.1,0-2.3-0.1-3.3-0.4c-4-0.9-7.2-3.4-9.4-7.4c-0.2-0.3-0.2-0.7,0-1c0.2-0.3,0.5-0.5,0.8-0.5h0.3 c1.6,0,10.1-0.3,20.6-5.1c9.6-4.5,23.3-14.1,34-34.4l-0.4-0.4c-5.4,4-15.5,10.7-22.9,10.7c-1.4,0-2.8-0.3-4.1-0.9 c-3.2-1.6-4.8-5.3-4.8-10.9v-0.5l-0.4,0.2c-2.3,1.3-6.8,3.5-10.6,3.5c-1.3,0-2.6-0.3-3.7-1c-2.2-1.4-3-4.3-2.7-8.5v-0.5l-0.4,0.2 c-4.3,1.7-10.2,3.8-14.4,3.8c-2,0-3.4-0.5-4-1.5c-1.1-1.8-1-5.2,10.2-16.2l-0.3-0.5c-6.4,2.8-11.1,4.3-14,4.3 c-1.1,0.1-2.1-0.2-2.9-1c-1-1.4-0.9-3.9,6.9-12.1l-0.3-0.5c-5.2,2.6-9.2,4-11.4,4c-0.3,0-0.6,0-0.9-0.1c-1.1-0.2-2-1-2.5-2 c-0.9-2.3,1.2-5.4,1.6-6c0.6-1,14.1-23.6,58.2-36c11.9-3.4,24.3-5.2,36.7-5.2c16.7,0,28,3.4,32.1,4.9l0.3,0.1v-0.4 c0.3-1.9,0.5-3.7,0.7-5.4c3-22.6,4.3-26.4,31.2-26.7h0.4l-0.1-0.4c-0.4-1.1-0.7-2.2-0.9-3.3v-0.1l-0.1-0.1c-16-7.6-15.5-9.1-15.1-10 c0.2-0.5,0.5-0.9,1.8-0.9c2.4,0.2,4.7,0.6,6.9,1.3l0.4,0.1l-0.1-0.4c-1.7-12.7-0.3-13,0.6-13.2c0.1,0,0.3-0.1,0.4-0.1 c1.1,0,2.3,1.8,5.3,10.9l0.3,0.9L194.3,1c0.1-0.4,0.5-0.7,0.9-0.7l0,0c0.4,0,0.8,0.2,1,0.6c1.3,3.2,2.4,6.4,3.3,9.7l0.1,0.2h0.2 c0.6,0,1.3,0.1,2,0.2c2.1,0.3,3.2,1,3.4,2.2c0.4,2.3-4.1,5.9-12.2,10.1l-0.2,0.1v0.2c0.3,1.2,0.6,2.3,1,3.5l0.1,0.2h3 c0.1,0,0.1,0,0.2,0c0.1,0,0.3,0.1,0.4,0.2c0.1,0.1,0.2,0.2,0.3,0.3v0.1l0,0c0.1,0.1,0.1,0.2,0.1,0.3c0,0.1,0,0.2,0,0.4v0.1 c0,0.1-0.1,0.2-0.1,0.3l-0.1,0.1l0,0c-0.7,0.9-1.3,1.9-1.8,2.9l-0.1,0.1l0.1,0.1c2.2,5,4.7,9.5,4.8,9.6c0.1,0.2,0.2,0.5,0.1,0.8 c-0.1,0.3-0.2,0.5-0.5,0.6c-0.2,0.1-0.3,0.1-0.5,0.1c-0.4,0-0.7-0.2-0.9-0.5c0,0-1.9-3.4-3.8-7.5l-0.3-0.7l-0.2,0.7 c-1,2.8-1.3,5.8-0.7,8.8c0.4,1.9,1.3,5.3,2.5,9.6c2.7,10.1,6.8,25.2,8.2,36.6c3,23.8-5.7,37.7-11.4,47c-0.7,1.2-1.3,2.2-1.9,3.2 l-0.1,0.1v0.1c0,2.8-0.6,28.2-22.4,47.9c-7.6,6.9-12.7,10-16,10c-0.8,0-1.6-0.2-2.3-0.7c-1.5-1.1-2-3.4-1.7-7l-0.5-0.2 c-1.5,2.4-3.3,4.6-5.3,6.5c-0.8,0.9-2,1.5-3.3,1.7c-0.4,0-0.8-0.1-1.1-0.3c-1.9-1-2.5-5.5-1.8-12.7l-0.6-0.1 c-4.6,10.2-7,12.4-8.2,12.5l0,0c-0.7,0-1.4-0.3-1.9-0.9c-0.9-1.1-1.8-4.5-0.6-14.2l-0.6-0.1c-1.4,3.6-3,7.1-4.7,10.4 c-1.2,2.4-3.1,5.6-5.5,5.6c-0.2,0-0.3,0-0.5,0c-3-0.6-4.6-6.3-5.5-11l-0.2-0.8l-0.4,0.7c-2.1,3.6-4.9,6.7-8.2,9.1 c-1,0.9-2.1,1.4-3.4,1.6c-0.5,0-1-0.1-1.3-0.4c-1.8-1.3-1.6-5.9,0.5-13.3l-0.5-0.3c-3.9,4.3-8,8.3-12.4,12 C81.3,197.7,79.5,199.1,78,199.1z"></path> <path class="st8" d="M196.6,53.7c-1.2-4.4-2.1-7.8-2.5-9.7c-0.5-2.9-0.3-5.9,0.7-8.6c1.9,4,3.7,7.3,3.9,7.5c0.2,0.4,0.7,0.7,1.1,0.7 c0.2,0,0.5-0.1,0.6-0.2c0.6-0.4,0.9-1.2,0.5-1.8c0,0,0,0,0,0c0-0.1-2.5-4.6-4.8-9.6c0.5-1,1.1-2,1.8-2.9l0,0c0,0,0-0.1,0-0.1 c0.1-0.1,0.1-0.2,0.2-0.3v-0.1c0-0.1,0-0.2,0-0.4c0,0,0-0.1,0-0.1c0-0.1-0.1-0.3-0.1-0.4v-0.1l0,0l-0.1-0.1 c-0.1-0.1-0.2-0.2-0.3-0.3l-0.1-0.1c-0.1-0.1-0.3-0.1-0.4-0.2h-0.1c-0.1,0-0.2,0-0.3,0h-2.8c-0.4-1.1-0.7-2.3-1-3.4 c5.2-2.7,12.9-7.2,12.4-10.4c-0.2-1.3-1.4-2.1-3.6-2.4c-0.7-0.1-1.4-0.2-2-0.2c-0.9-3.3-2-6.6-3.3-9.7c-0.3-0.7-1-1-1.7-0.7 c-0.4,0.2-0.7,0.5-0.8,0.9l-2.9,10.2c-3.6-11-4.7-11.4-6.1-11.1c-1.1,0.2-2.5,0.6-0.8,13.5c-7.5-2-8.6-1.5-9.1-0.2 c-0.4,1.1-1,2.6,15.3,10.3c0.2,1.1,0.5,2.2,0.9,3.3c-26.9,0.4-28.4,4.1-31.4,27c-0.2,1.7-0.5,3.5-0.7,5.4c-6.6-2.4-32.3-10-69,0.3 C46.4,72.1,32.9,94.3,31.9,95.9c-0.5,0.7-2.5,3.9-1.6,6.3c0.5,1.1,1.4,1.9,2.6,2.1c2.5,0.6,7.8-1.6,12.5-4c-7.8,8.1-8,10.9-6.9,12.5 c2,2.8,9.9,0.1,17.2-3.1c-11.2,10.9-11.6,14.5-10.3,16.6c2.4,3.7,12.7,0.3,18.8-2.1c-0.4,4.3,0.6,7.2,2.8,8.7 c4.1,2.7,11-0.6,14.6-2.6c0,5.8,1.7,9.5,5,11.2c7.3,3.7,20.3-4.6,27.3-9.8c-10.6,20.1-24.1,29.7-33.9,34.3 c-11.5,5.4-20.6,5.1-20.7,5.1c-0.5,0-0.9,0.2-1.2,0.6c-0.2,0.4-0.2,0.9,0,1.3c2.3,4.1,5.6,6.7,9.6,7.6c5.6,1.2,11.5-1,15.3-2.9 c-1,2-2.2,4.5-3.4,7c-5.1,11.3-4.3,13.3-3.1,14.2c0.4,0.3,0.9,0.5,1.3,0.5c1.5,0,3.3-1.3,4.9-2.7c4.4-3.7,8.6-7.7,12.5-12 c-1.7,5.8-2.7,11.9-0.4,13.6c1.9,1.4,4.3-0.5,5.1-1.1c3.4-2.5,6.2-5.6,8.3-9.2c0.9,4.9,2.5,10.7,5.7,11.3c2.9,0.5,5-3,6.4-5.7 c1.8-3.6,3.4-7.2,4.7-10.5c-0.8,6.5-0.9,12.5,0.7,14.4c0.5,0.7,1.3,1,2.1,1c2.2-0.1,5.4-5.8,8.5-12.6c-0.6,5.9-0.4,11.7,2,13 c1.3,0.7,2.9,0.3,4.7-1.4c2-2,3.9-4.2,5.4-6.6c-0.3,3.2,0,6,1.8,7.3c3.2,2.3,8.9-0.6,18.6-9.4c21.8-19.7,22.6-44.6,22.6-48.2 c0.6-1,1.2-2,1.9-3.1c5.7-9.3,14.4-23.3,11.4-47.2C203.4,78.8,199.3,63.7,196.6,53.7z M180.3,15.3c1.2,0.3,2.9,0.7,5.3,1.3 c0.7,0.2,1.4-0.2,1.6-0.9c0-0.2,0.1-0.4,0-0.5c-0.5-3.5-0.9-7.5-1-10.2c0.8,1.9,2,5.3,3.8,11.1c0.2,0.6,0.7,1,1.3,0.9 c0.6,0,1.1-0.4,1.3-1l3-10.6c0.6,1.6,1.2,3.4,1.6,5c-1.8,0.2-2.8,0.7-3.3,1.6c-0.5,1-0.3,2.1,0.4,2.9c0.2,0.2,0.4,0.4,0.7,0.4 c0.3,0.1,2.9,0.7,4.4-0.7c0.4-0.4,0.7-1,0.9-1.6c0.4,0,1,0.1,1.5,0.1c0.4,0,0.9,0.1,1.3,0.3c-0.6,1.4-5.6,4.8-11.2,7.6 C187.6,19.4,183.1,17,180.3,15.3L180.3,15.3z M191.3,135.8c-1.3-20.7-6.5-33.8-15.3-38.7c-5.1-2.7-11.2-2.7-16.2,0.1 c-7,4-5.7,10.3-5.6,10.5c0.2,0.7,0.9,1.1,1.7,0.9c0.6-0.2,1-0.8,0.9-1.5c0,0-1-4.6,4.4-7.7c4.2-2.4,9.4-2.4,13.6-0.1 c5.9,3.3,13.2,13,14.2,40.8l0,0c0,0.5,0.3,26.7-21.7,46.5c-11.6,10.4-14.6,9.7-15.3,9.2c-1.8-1.3-0.6-7.9,1.8-14.8 c1.4-3.3,2.2-5.7,2.3-5.9c0.2-0.7-0.1-1.4-0.8-1.7c-0.7-0.2-1.4,0.1-1.7,0.8c-0.4,1-1.3,3.1-2.2,5.8c-2,4.7-5.4,11.3-9.9,15.4 c-1.2,1.1-1.6,1-1.6,1c-1.5-0.7-1.1-10.7,0.9-20.9c0.2-0.7-0.3-1.4-1-1.6c-0.6-0.1-1.3,0.2-1.5,0.8c-3.6,9.2-8.4,19.6-10.3,20.9 c-1.6-1.7-0.3-15.1,3-30.1l0,0c4.6-17.3,7.9-21,8-21.1c0.5-0.6,0.4-1.4-0.1-1.9c-0.5-0.4-1.2-0.4-1.7,0c-0.4,0.4-3.6,3.8-8.2,20.2 c-0.1,0.1-0.2,0.3-0.2,0.5l-0.2,0.8c-2.4,9.8-5.9,19.2-10.4,28.2c-1.8,3.5-3,4.4-3.5,4.3c-1.8-0.3-3.7-7.9-4.3-14.5 c0-0.7-0.6-1.3-1.4-1.3c-0.7,0-1.3,0.6-1.3,1.4l0,0c0,0.1-0.2,6-9.2,12.9c-0.6,0.5-1.2,0.9-1.9,1.1c-1.1-1.1,0.6-9.3,3.6-17.6 c0.2-0.7-0.1-1.5-0.8-1.7c-0.6-0.2-1.2,0-1.6,0.6c0,0.1-3.8,6.2-16.6,17.3c-0.8,0.8-1.8,1.5-2.8,2c-0.1-2.7,4.5-13.1,9.2-21.8 c0.4-0.6,0.1-1.4-0.5-1.8c-0.5-0.2-1-0.2-1.4,0.1c-0.1,0.1-9.3,6.6-17.3,4.9c-2.7-0.6-5.1-2.2-6.7-4.4c8-0.6,34-5.2,52.4-36.7 l0.1-0.1c9.3-13.6,10.3-32.9,10.4-33.7c0-0.7-0.5-1.4-1.3-1.4c-0.7,0-1.3,0.5-1.4,1.3c-0.6,7.9-2.3,15.7-5.1,23.1 c-5.8,4.9-22,16.5-29,13c-2.7-1.4-3.8-5.1-3.4-11.1c0.1-0.7-0.5-1.4-1.2-1.4c-0.3,0-0.6,0.1-0.8,0.2c-2.5,1.7-10.5,6-13.8,3.9 c-2.1-1.4-1.9-5.3-1.3-8.4c0.1-0.7-0.4-1.4-1.1-1.5c-0.3,0-0.5,0-0.8,0.1c-8.3,3.5-16.7,5.5-17.6,4c-0.2-0.3-1.3-3.3,16.1-19.1 c0.5-0.4,0.6-1.2,0.2-1.7c-0.4-0.5-1.1-0.7-1.7-0.4c-10.1,5.2-20.3,8.8-21.7,7.8c-0.1-0.3-0.4-3,13.5-15.9c0.5-0.5,0.6-1.2,0.2-1.8 c-0.4-0.5-1.2-0.7-1.7-0.3c-6.4,3.9-16.5,9.1-19.1,8.4c-0.7-0.2-0.8-0.4-0.8-0.5c-0.3-0.9,0.6-2.8,1.3-3.9c0,0,0-0.1,0.1-0.1 c0-0.1,3.3-5.7,11.9-12.8c8-6.6,22.2-15.7,44.8-22.1c21.4-6,39-5.6,50-4.3c6.1,0.7,12.1,2,17.9,4.1c-1,4.3-5.2,20.7-16,31.4 c-0.5,0.5-0.5,1.3,0,1.9c0.2,0.3,0.6,0.4,0.9,0.4c0.3,0,0.7-0.1,0.9-0.4c11.5-11.4,15.8-28.5,16.8-32.8c0-0.1,0.1-0.2,0.1-0.2l0,0 c0,0,0-0.1,0-0.4s0.1-0.3,0.1-0.4c0,0,0-0.1,0-0.1c0-0.2,0.1-0.4,0.1-0.7c0.3-2.2,0.6-4.3,0.9-6.2c2.9-21.6,3.3-24.5,29.8-24.7 l0.1,0.1c-1.8,1.3-3.4,2.8-4.8,4.5c-0.4,0.6-0.4,1.4,0.2,1.9c0.2,0.2,0.5,0.3,0.8,0.3c0.4,0,0.8-0.2,1-0.5c1-1.2,2-2.2,3.2-3.1 c-1.6,3.7-2.1,7.7-1.4,11.7c0.4,1.9,1.3,5.4,2.5,9.9c2.7,9.9,6.8,25,8.1,36.2C205.1,113.3,197.1,126.3,191.3,135.8L191.3,135.8z"></path> <path class="st8" d="M176,35c-2,0.3-3.3,2.1-3.1,4c0,0.2,0.1,0.5,0.2,0.7c0.4,1.4,1.7,2.4,3.2,2.3c1.4,0,3.1-0.8,5-2.5 c0.5-0.4,0.6-1.1,0.3-1.7C180.7,36.5,178.6,34.4,176,35z M176,39.4c-0.2-0.1-0.4-0.3-0.4-0.5c-0.1-0.3-0.1-0.5,0-0.8 c0.2-0.3,0.6-0.5,0.9-0.5c0.1,0,0.2,0,0.3,0c0.6,0.1,1.2,0.4,1.7,0.9C177,39.5,176.2,39.4,176,39.4L176,39.4z"></path> <path class="st8" d="M313.3,183.3c-1-0.5-1-0.8-1-2.6c0-3.5,0.3-6.3,0.4-7.4c0.1-0.8,0.2-1.1,0.6-1.1s0.5,0.2,0.5,0.8 c0,0.9,0,1.7,0.2,2.6c1,5.2,5.6,7.1,10.3,7.1c6.7,0,10-4.8,10-9.3c0-4.8-2-7.6-8-12.5l-3.1-2.6c-7.4-6.1-9.1-10.4-9.1-15.1 c0-7.5,5.6-12.5,14.4-12.5c2.2,0,4.4,0.2,6.5,0.7c0.8,0.2,1.6,0.3,2.4,0.4c0.6,0,0.7,0.1,0.7,0.5s-0.3,2.6-0.3,7.4 c0,1.1-0.1,1.6-0.5,1.6s-0.5-0.4-0.6-0.9c-0.1-1.2-0.4-2.4-0.9-3.5c-0.4-0.8-2.3-3.7-8.7-3.7c-4.8,0-8.6,3-8.6,8.1 c0,4,2,6.3,8.5,11.7l2,1.5c8.2,6.5,10.2,10.8,10.2,16.4c0,4.6-2.2,8.9-5.9,11.6c-3.1,2-6.8,3-10.5,2.9 C319.5,185.3,316.3,184.6,313.3,183.3z"></path> <path class="st8" d="M369.5,133.3c0.8-2.3,1.1-2.7,1.5-2.7s0.7,0.3,1.5,2.5c1,2.6,12,31.4,16.2,42c2.5,6.2,4.5,7.3,6,7.7 c0.9,0.3,1.8,0.4,2.8,0.4c0.4,0,0.7,0.1,0.7,0.4s-0.6,0.6-1.4,0.6c-1,0-6.1,0-11-0.1c-1.3-0.1-2.1-0.1-2.1-0.5s0.2-0.4,0.5-0.5 s0.8-0.8,0.4-1.9l-6.5-17.1c-0.1-0.3-0.3-0.4-0.6-0.4h-15c-0.3,0-0.6,0.2-0.7,0.6l-4.2,12.3c-0.6,1.5-0.9,3.1-1,4.7 c0,1.4,1.5,2,2.6,2h0.7c0.5,0,0.7,0.1,0.7,0.4s-0.4,0.6-1,0.6c-1.7,0-4.7-0.2-5.4-0.2s-4.6,0.2-7.9,0.2c-0.9,0-1.3-0.1-1.3-0.6 s0.3-0.4,0.6-0.4c0.5,0,1.5-0.1,2-0.1c3.2-0.4,4.6-3.1,5.9-6.5L369.5,133.3z M376.8,161.1c0.3,0,0.3-0.2,0.3-0.5l-6.6-18.8 c-0.3-1-0.7-1-1,0l-6.1,18.8c-0.1,0.4,0,0.5,0.2,0.5H376.8z"></path> <path class="st8" d="M412.1,174.7c0.1,5.7,0.8,7.5,2.7,8.1c1.1,0.3,2.3,0.4,3.5,0.4c0.4,0,0.6,0.1,0.6,0.4s-0.4,0.6-1.3,0.6 c-4,0-6.8-0.2-7.4-0.2s-3.5,0.2-6.7,0.2c-0.7,0-1.1-0.1-1.1-0.6c0-0.3,0.2-0.4,0.6-0.4c1,0,1.9-0.1,2.9-0.4c1.7-0.5,2.1-2.5,2.1-8.9 L408,134c0-2.7,0.2-3.5,0.8-3.5s1.7,1.5,2.4,2.2c1,1.2,11.4,12.4,22.2,23.9c6.9,7.4,14.5,15.9,16.7,18.2l-0.8-35.4 c-0.1-4.5-0.6-6.1-2.7-6.6c-1.1-0.2-2.3-0.3-3.4-0.4c-0.5,0-0.5-0.2-0.5-0.5s0.5-0.5,1.4-0.5c3.1,0,6.5,0.2,7.3,0.2s3.1-0.2,5.9-0.2 c0.8,0,1.3,0.1,1.3,0.5s-0.3,0.5-0.8,0.5c-0.6,0-1.1,0.1-1.7,0.2c-2.3,0.5-2.6,2-2.6,6.2l-0.1,40.8c0,4.6-0.1,4.9-0.6,4.9 s-1.4-0.8-5.1-4.5c-0.8-0.7-10.8-10.9-18.2-18.9c-8.1-8.7-16-17.5-18.2-20L412.1,174.7z"></path> <path class="st8" d="M491.2,164c0,6.7,0,12.2,0.3,15.1c0.2,2,0.6,3.5,2.7,3.8c1,0.1,2.1,0.2,3.1,0.3c0.4,0,0.6,0.2,0.6,0.4 s-0.3,0.6-1.1,0.6c-3.8,0-8.2-0.2-8.6-0.2s-4.7,0.2-6.8,0.2c-0.8,0-1.1-0.1-1.1-0.6c0-0.2,0.1-0.4,0.6-0.4c0.7,0,1.4-0.1,2.1-0.3 c1.4-0.3,1.7-1.8,2-3.8c0.4-2.9,0.4-8.4,0.4-15.1v-29.5l-8.2,0.1c-4.3,0.1-6,0.6-7.1,2.2c-0.5,0.7-0.9,1.4-1.2,2.2 c-0.2,0.6-0.4,0.7-0.7,0.7s-0.4-0.2-0.4-0.6c0-0.7,1.4-6.7,1.5-7.3s0.4-1.3,0.7-1.3c0.5,0,1.2,0.7,3.1,0.8s4.7,0.4,5.5,0.4h21.9 c2.3,0,4.6-0.2,6.9-0.7c0.3,0,0.3,0.4,0.3,0.8c0,2.1-0.2,6.9-0.2,7.7s-0.2,0.9-0.5,0.9s-0.5-0.2-0.5-1.2l-0.1-0.8 c-0.3-2.1-1.9-3.7-8.6-3.8l-6.7-0.1L491.2,164z"></path> <path class="st8" d="M534,151.7c0-10.9,0-12.8-0.1-15s-0.7-3.5-3-4c-0.8-0.1-1.6-0.2-2.4-0.2c-0.3,0-0.6-0.1-0.6-0.4 s0.3-0.6,1.1-0.6c3.1,0,7.5,0.2,7.9,0.2s14.4,0,16-0.1c1,0,2-0.2,3-0.4c0.3-0.1,0.6-0.4,1-0.4s0.3,0.3,0.3,0.6s-0.3,1.3-0.6,3.3 c-0.1,0.7-0.2,3.8-0.3,4.6c-0.1,0.3-0.2,0.8-0.5,0.8s-0.6-0.4-0.6-0.9c0-0.9-0.1-1.7-0.4-2.5c-0.5-1.1-1.2-2-5-2.4 c-1.2-0.1-8.8-0.2-9.5-0.2c-0.3,0-0.4,0.2-0.4,0.7v19.2c0,0.5,0.1,0.7,0.4,0.7c0.9,0,9.5,0,11.1-0.1s2.7-0.3,3.3-1s0.8-0.9,1-0.9 s0.3,0.1,0.3,0.5s-0.3,1.6-0.6,3.9c-0.1,1.4-0.3,4-0.3,4.5s0,1.3-0.5,1.3s-0.5-0.3-0.5-0.6c0-0.8-0.1-1.6-0.3-2.3 c-0.3-1-0.9-2.2-3.6-2.4c-1.9-0.2-8.8-0.3-10-0.3c-0.2,0-0.5,0.1-0.5,0.4c0,0,0,0.1,0,0.1v6.1c0,2.4-0.1,10.5,0,11.9 c0.2,4.8,1.3,5.7,8.1,5.7c1.8,0,4.9,0,6.7-0.8s2.7-2.2,3.1-5c0.1-0.8,0.3-1,0.6-1s0.4,0.6,0.4,1c-0.2,2.3-0.5,4.5-0.9,6.8 c-0.5,1.8-1,1.8-3.8,1.8c-10.5,0-15.2-0.4-17.2-0.4c-0.3,0-4.7,0.2-6.8,0.2c-0.8,0-1.1-0.1-1.1-0.6c0-0.2,0.1-0.4,0.6-0.4 c0.7,0,1.4-0.1,2.1-0.3c1.4-0.3,1.7-1.8,2-3.8c0.3-2.9,0.3-8.4,0.3-15.1L534,151.7z"></path> <path class="st8" d="M611.6,166.4c0-5.6-0.3-6.4-3.1-7.2c-0.8-0.1-1.6-0.2-2.4-0.2c-0.3,0-0.6-0.1-0.6-0.4s0.3-0.6,1.1-0.6 c3.1,0,7.5,0.2,7.9,0.2s4.7-0.2,6.8-0.2c0.8,0,1.1,0.1,1.1,0.6s-0.3,0.4-0.5,0.4c-0.6,0-1.2,0.1-1.8,0.2c-1.9,0.4-2.4,1.5-2.6,4 c-0.1,2.2-0.1,4.3-0.1,7.3v7.8c0,3.1-0.1,3.3-0.9,3.8c-4.5,2.4-10.7,3.1-14.8,3.1c-5.3,0-15.2-0.7-22.9-7.5 c-4.3-3.7-8.3-11.2-8.3-19.9c0-11.1,5.4-19,11.6-22.9s13.2-4.4,18.5-4.4c3.6,0.1,7.1,0.5,10.7,1.2c1.9,0.4,3.8,0.6,5.7,0.7 c0.7,0.1,0.8,0.4,0.8,0.6c-0.3,3.3-0.5,6.6-0.5,9.9c0,1.1-0.1,1.5-0.6,1.5s-0.4-0.4-0.5-1c-0.1-1.6-0.6-3.2-1.5-4.6 c-1.7-2.6-7.4-5.6-16.4-5.6c-4.4,0-9.6,0.4-14.9,4.6c-4,3.2-6.9,9.5-6.9,17.7c0,9.8,5,16.9,7.4,19.3c4.8,4.8,11.4,7.5,18.3,7.5 c2.5,0,6.1-0.4,8-1.5c0.9-0.5,1.5-1.4,1.4-2.4L611.6,166.4z"></path> <path class="st8" d="M646.4,164c0,6.7,0,12.2,0.3,15.1c0.2,2,0.6,3.5,2.7,3.8c1,0.1,2.1,0.2,3.1,0.3c0.4,0,0.6,0.2,0.6,0.4 s-0.3,0.6-1.1,0.6c-3.8,0-8.2-0.2-8.6-0.2s-4.7,0.2-6.8,0.2c-0.8,0-1.1-0.1-1.1-0.6c0-0.2,0.1-0.4,0.6-0.4c0.7,0,1.4-0.1,2.1-0.3 c1.4-0.3,1.7-1.8,2-3.8c0.3-2.9,0.3-8.4,0.3-15.1v-12.3c0-10.9,0-12.8-0.1-15s-0.8-3.6-2.4-3.9c-0.7-0.2-1.4-0.3-2.2-0.3 c-0.3,0-0.6-0.1-0.6-0.4s0.3-0.6,1.1-0.6c2.3,0,6.7,0.2,7,0.2s4.7-0.2,6.8-0.2c0.8,0,1.1,0.1,1.1,0.6s-0.3,0.4-0.6,0.4 c-0.6,0-1.2,0.1-1.7,0.2c-1.9,0.3-2.4,1.5-2.6,4c-0.1,2.2-0.1,4.2-0.1,15L646.4,164z"></path> <path class="st8" d="M673.1,151.7c0-10.9,0-12.8-0.1-15s-0.7-3.5-3-4c-0.8-0.1-1.6-0.2-2.4-0.2c-0.3,0-0.6-0.1-0.6-0.4 s0.3-0.6,1.1-0.6c3.1,0,7.5,0.2,7.9,0.2c0.8,0,5.2-0.2,9.4-0.2c6.9,0,19.7-0.6,27.9,8c4.5,4.8,6.9,11.1,6.8,17.7 c0.1,7.3-2.6,14.3-7.5,19.6c-3,3.1-9.3,8-21.1,8c-6,0-14.8-0.8-15.5-0.8c-0.3,0-4.7,0.2-6.8,0.2c-0.8,0-1.1-0.1-1.1-0.6 c0-0.2,0.1-0.4,0.6-0.4c0.7,0,1.4-0.1,2.1-0.3c1.4-0.3,1.8-1.8,2-3.8c0.3-2.9,0.3-8.4,0.3-15.1L673.1,151.7z M679,159.3 c0,7.4,0.1,13.8,0.1,15.1c0.1,1.7,0.2,4.5,0.8,5.3c0.9,1.3,3.6,2.8,11.8,2.8c6.2,0.1,12.1-2.2,16.6-6.5c3.6-3.5,5.6-10.2,5.6-16.6 c0.1-6.5-2.3-12.8-6.7-17.6c-6.5-6.9-14.5-7.9-22.8-7.9c-1.5,0-3,0.1-4.5,0.5c-0.6,0.2-0.9,0.8-0.8,1.4c-0.1,2.4-0.1,9.5-0.1,14.9 V159.3z"></path> <path class="st8" d="M744.2,164c0,6.7,0,12.2,0.3,15.1c0.2,2,0.6,3.5,2.7,3.8c1,0.1,2.1,0.2,3.1,0.3c0.4,0,0.6,0.2,0.6,0.4 s-0.3,0.6-1.1,0.6c-3.8,0-8.2-0.2-8.6-0.2s-4.7,0.2-6.8,0.2c-0.8,0-1.1-0.1-1.1-0.6c0-0.2,0.1-0.4,0.5-0.4c0.7,0,1.4-0.1,2.1-0.3 c1.4-0.3,1.8-1.8,2-3.8c0.3-2.9,0.3-8.4,0.3-15.1v-12.3c0-10.9,0-12.8-0.1-15s-0.8-3.6-2.4-3.9c-0.7-0.2-1.4-0.3-2.2-0.3 c-0.3,0-0.5-0.1-0.5-0.4s0.3-0.6,1.1-0.6c2.3,0,6.7,0.2,7,0.2s4.7-0.2,6.8-0.2c0.8,0,1.1,0.1,1.1,0.6s-0.3,0.4-0.5,0.4 c-0.6,0-1.2,0.1-1.7,0.2c-1.9,0.3-2.4,1.5-2.6,4c-0.1,2.2-0.1,4.2-0.1,15L744.2,164z"></path> <path class="st8" d="M788.7,130.6c15.7,0,27.4,9.9,27.4,26.1c0,15.6-11,28.5-27.8,28.5c-19.1,0-27-14.8-27-27.4 C761.3,146.5,769.5,130.6,788.7,130.6z M790.2,182.6c6.3,0,19.2-3.6,19.2-23.9c0-16.7-10.2-25.7-21.2-25.7 c-11.6,0-20.3,7.7-20.3,22.9C767.9,172.1,777.6,182.5,790.2,182.6L790.2,182.6z"></path> <path class="st8" d="M515.1,143.1c0.3,0,0.5-0.2,0.9-0.8c2.3-3.8,5.8-11.9,4.8-18.4c-0.2-1.2-0.6-1.5-1.7-1.9 c-1.8-0.4-3.6-0.6-5.5-0.7c-0.3,0-0.5,0-0.8,0c-0.2,0-0.4,0.2-0.5,0.4c0.1,0.3,0.1,0.5,0.9,1.2l0,0c1.5,1.5,2.4,3.5,2.8,5.6 c0.6,4.4,0.3,8.9-0.9,13.2c-0.1,0.3-0.2,0.7-0.2,1.1C514.9,143,515,143.1,515.1,143.1z"></path> <g> <path d="M337.4,92.9v4.8H337c0-0.3-0.1-0.7-0.3-1.1s-0.4-0.8-0.6-1.1c-0.3-0.3-0.6-0.6-0.9-0.9c-0.4-0.2-0.7-0.3-1.2-0.3h-17.5 c-0.4,0-0.8,0.1-1.2,0.4c-0.4,0.2-0.7,0.5-0.9,0.9c-0.3,0.3-0.5,0.7-0.6,1.1c-0.2,0.4-0.3,0.8-0.3,1.1H313v-4.8h1.7 c0.8,0,1.4-0.5,1.7-1.4l8.7-22.9l8.8,22.8c0.2,0.4,0.4,0.7,0.7,1c0.3,0.3,0.7,0.5,1.1,0.5H337.4z M317.3,92.9h14.6L324.6,74 L317.3,92.9z"></path> <path d="M348.5,78c1.4,0,2.6,0.2,3.6,0.7c1,0.5,1.8,1.1,2.5,1.8c0.7,0.8,1.2,1.6,1.5,2.6c0.3,1,0.5,2,0.5,3c0,1-0.2,2-0.5,3 c-0.3,1-0.8,1.9-1.4,2.7c-0.6,0.8-1.5,1.4-2.4,1.9c-1,0.5-2.1,0.7-3.4,0.7c-0.8,0-1.6-0.2-2.4-0.6s-1.6-0.9-2.2-1.6v7.8 c0,0.2,0,0.4,0.1,0.7c0.1,0.2,0.1,0.5,0.2,0.7c0.1,0.2,0.2,0.4,0.4,0.5c0.1,0.2,0.3,0.2,0.5,0.2v0.4h-4.9v-0.4 c0.2,0,0.3-0.1,0.5-0.2c0.2-0.2,0.3-0.3,0.4-0.5c0.1-0.2,0.2-0.4,0.2-0.7c0.1-0.2,0.1-0.5,0.1-0.7V80.5c0-0.2,0-0.4,0-0.7 s-0.1-0.4-0.1-0.6c-0.1-0.2-0.2-0.3-0.4-0.4c-0.2-0.1-0.4-0.2-0.7-0.2v-0.4h3.7v1.7c0.5-0.6,1.1-1.1,1.8-1.4 C346.8,78.1,347.6,78,348.5,78z M348.9,93.2c0.9,0,1.7-0.2,2.3-0.6c0.7-0.4,1.2-0.9,1.6-1.5c0.4-0.6,0.7-1.3,0.9-2 c0.2-0.7,0.3-1.5,0.3-2.3c0-0.9-0.1-1.8-0.4-2.7c-0.3-0.9-0.6-1.7-1.1-2.4c-0.5-0.7-1.1-1.3-1.8-1.7c-0.7-0.4-1.5-0.7-2.4-0.7 c-0.5,0-1.1,0.1-1.6,0.3c-0.5,0.2-1,0.5-1.4,0.9c-0.4,0.4-0.7,0.8-1,1.3c-0.2,0.5-0.4,1.1-0.4,1.7v5c0,0.7,0.1,1.3,0.4,1.9 c0.3,0.6,0.6,1.1,1.1,1.5c0.4,0.4,0.9,0.7,1.5,1C347.8,93,348.3,93.2,348.9,93.2z"></path> <path d="M366.1,99.6c-0.4,1.1-0.8,1.8-1.3,2.2c-0.5,0.4-1.1,0.6-1.7,0.6c-0.4,0-0.7-0.1-1-0.2c-0.3-0.1-0.6-0.3-0.8-0.4 c-0.2-0.2-0.5-0.4-0.7-0.6l1.3-3.1c0.1,0.4,0.2,0.7,0.4,1c0.1,0.3,0.3,0.5,0.5,0.7c0.2,0.2,0.5,0.3,0.8,0.3c0.6,0,1.1-0.4,1.4-1.3 l1.8-4.7l-6.1-13.8c-0.2-0.4-0.4-0.8-0.6-1.1c-0.2-0.3-0.6-0.5-1.1-0.5v-0.4h4.9v0.4c-0.1,0-0.2,0.1-0.4,0.3 c-0.2,0.2-0.2,0.4-0.2,0.7c0,0.2,0.1,0.4,0.2,0.6l4.7,10.8l4.5-11c0.1-0.2,0.1-0.3,0.1-0.5c0-0.3-0.1-0.5-0.2-0.6 c-0.2-0.2-0.3-0.2-0.5-0.2v-0.4h3.7v0.4c-0.4,0-0.8,0.2-1,0.5c-0.3,0.3-0.5,0.7-0.7,1.2L366.1,99.6z"></path> <path d="M388.4,81.9c0,0.6-0.3,1.3-0.8,2c-0.5,0.7-1.3,1.3-2.2,1.7c1.4,0.3,2.4,0.8,3.1,1.6c0.6,0.7,0.9,1.5,0.9,2.4 c0,0.8-0.2,1.5-0.6,2.1c-0.4,0.6-0.9,1.1-1.5,1.5s-1.4,0.7-2.2,0.9c-0.8,0.2-1.7,0.3-2.6,0.3c-0.8,0-1.6-0.1-2.2-0.2 c-0.7-0.2-1.2-0.3-1.7-0.5c-0.5-0.2-0.9-0.4-1.2-0.5c-0.3-0.2-0.6-0.2-0.7-0.2v-3.1h0.3c0.1,0.5,0.2,1,0.5,1.4 c0.3,0.4,0.7,0.8,1.2,1.1c0.5,0.3,1,0.5,1.6,0.7c0.6,0.2,1.2,0.2,1.8,0.2c0.6,0,1.2-0.1,1.7-0.2c0.6-0.1,1.1-0.3,1.5-0.6 c0.4-0.3,0.8-0.6,1.1-1c0.3-0.4,0.4-0.9,0.4-1.4c0-0.6-0.2-1.1-0.5-1.5c-0.3-0.4-0.7-0.8-1.2-1.1c-0.5-0.3-1-0.5-1.6-0.7 s-1.2-0.2-1.8-0.2h-1.2v-1.2h1.3c0.5,0,1-0.1,1.5-0.3c0.5-0.2,0.9-0.4,1.3-0.7c0.4-0.3,0.6-0.6,0.9-1c0.2-0.4,0.3-0.7,0.3-1.1 c0-0.5-0.1-0.9-0.4-1.2c-0.2-0.4-0.6-0.7-1-0.9c-0.4-0.3-0.9-0.4-1.3-0.6s-1-0.2-1.5-0.2c-0.5,0-1,0.1-1.4,0.2 c-0.5,0.1-0.9,0.3-1.2,0.6c-0.4,0.3-0.7,0.6-0.9,1s-0.4,0.8-0.5,1.4h-0.3v-3c0.2,0,0.4,0,0.6-0.1c0.2-0.1,0.4-0.2,0.6-0.3 c0.4-0.2,0.9-0.4,1.5-0.6c0.6-0.2,1.3-0.3,2.2-0.3c2,0,3.5,0.4,4.6,1.1C387.9,79.7,388.4,80.7,388.4,81.9z"></path> <path d="M399.2,85.2c1.2,0,2.2,0.1,3.1,0.3c0.9,0.2,1.6,0.5,2.2,0.9s1,0.9,1.3,1.4c0.3,0.5,0.4,1.1,0.4,1.8c0,0.6-0.1,1.2-0.4,1.8 c-0.3,0.6-0.7,1-1.3,1.4c-0.6,0.4-1.3,0.7-2.2,1c-0.9,0.2-1.9,0.4-3.2,0.4h-6.5v-0.4c0.2,0,0.4-0.1,0.5-0.2 c0.2-0.1,0.3-0.3,0.4-0.5c0.1-0.2,0.2-0.4,0.2-0.7c0.1-0.2,0.1-0.5,0.1-0.7V80.6c0-0.2,0-0.4-0.1-0.6s-0.1-0.4-0.2-0.6 c-0.1-0.2-0.2-0.4-0.4-0.5c-0.2-0.1-0.3-0.2-0.5-0.2v-0.4h5v0.4c-0.4,0-0.7,0.2-0.9,0.7c-0.2,0.5-0.3,0.9-0.3,1.3v4.6H399.2z M398.9,93c1.7,0,2.9-0.3,3.6-0.8c0.7-0.5,1.1-1.2,1.1-2c0-0.5-0.1-0.9-0.3-1.4c-0.2-0.4-0.5-0.8-0.9-1.2c-0.4-0.3-0.9-0.6-1.5-0.8 c-0.6-0.2-1.3-0.3-2.1-0.3h-2.6V93H398.9z"></path> <path d="M421.5,91.7c0,0.2,0,0.4,0.1,0.7c0,0.2,0.1,0.5,0.2,0.7c0.1,0.2,0.2,0.4,0.4,0.5c0.1,0.1,0.3,0.2,0.5,0.2v0.4h-4.9v-0.4 c0.2,0,0.3-0.1,0.5-0.2c0.2-0.2,0.3-0.3,0.4-0.5c0.1-0.2,0.2-0.4,0.2-0.7c0.1-0.2,0.1-0.5,0.1-0.7v-5.3c-0.3,0.1-0.6,0.2-1,0.4 c-0.4,0.2-0.7,0.5-1.1,0.9c-0.4,0.4-0.7,0.8-1.1,1.2c-0.4,0.4-0.7,0.9-1,1.3c-0.3,0.4-0.5,0.6-0.6,0.9c-0.2,0.2-0.3,0.4-0.5,0.6 c-0.3,0.3-0.5,0.6-0.8,0.9c-0.3,0.3-0.5,0.6-0.9,0.8c-0.3,0.2-0.7,0.4-1.1,0.5c-0.4,0.1-0.9,0.2-1.5,0.2h-1.4v-0.4 c0.3,0,0.6-0.1,0.9-0.3c0.3-0.2,0.6-0.4,0.9-0.7c0.3-0.3,0.6-0.6,0.9-0.9c0.3-0.3,0.5-0.6,0.7-0.9l1.2-1.6c0.4-0.6,0.9-1.2,1.3-1.7 c0.5-0.6,1-1,1.6-1.3c-0.9,0-1.7-0.2-2.4-0.4s-1.3-0.5-1.8-0.9s-0.8-0.8-1.1-1.3c-0.2-0.5-0.4-1-0.4-1.6c0-0.5,0.1-1,0.4-1.5 c0.2-0.5,0.6-0.9,1.2-1.3c0.5-0.4,1.2-0.7,2-0.9c0.8-0.2,1.8-0.3,3-0.3h6.3v0.4c-0.2,0-0.4,0.1-0.5,0.2c-0.1,0.1-0.3,0.3-0.4,0.5 c-0.1,0.2-0.2,0.4-0.2,0.6c-0.1,0.2-0.1,0.4-0.1,0.6V91.7z M412.4,82c0,0.4,0.1,0.8,0.4,1.1c0.2,0.4,0.6,0.7,1,1 c0.4,0.3,0.9,0.6,1.4,0.7c0.5,0.2,1.1,0.3,1.7,0.3h2.1v-5.7h-2.5c-1.5,0-2.6,0.2-3.2,0.7C412.7,80.6,412.4,81.3,412.4,82z"></path> <path d="M444.3,94.5c-1.3,0-2.4-0.2-3.4-0.6c-1-0.4-1.9-1-2.6-1.7c-0.7-0.7-1.3-1.6-1.7-2.6c-0.4-1-0.6-2.1-0.6-3.2 c0-1.2,0.2-2.4,0.6-3.4s1-1.9,1.8-2.6c0.8-0.7,1.7-1.3,2.7-1.7c1-0.4,2.2-0.6,3.4-0.6s2.3,0.2,3.3,0.6c1,0.4,1.9,0.9,2.6,1.7 c0.7,0.7,1.3,1.6,1.7,2.5c0.4,1,0.6,2,0.6,3.2c0,1.1-0.2,2.1-0.6,3.2c-0.4,1-0.9,1.9-1.6,2.7c-0.7,0.8-1.6,1.4-2.7,1.9 C446.9,94.2,445.7,94.5,444.3,94.5z M444,79.2c-0.9,0.1-1.7,0.3-2.4,0.7c-0.7,0.4-1.3,0.9-1.7,1.5c-0.5,0.6-0.8,1.3-1.1,2.1 c-0.2,0.8-0.4,1.6-0.4,2.4c0,0.9,0.1,1.8,0.4,2.7c0.3,0.9,0.7,1.7,1.3,2.3s1.2,1.2,2,1.6c0.8,0.4,1.6,0.6,2.5,0.6 c0.9,0,1.8-0.2,2.5-0.6c0.7-0.4,1.3-0.9,1.8-1.6c0.5-0.6,0.8-1.4,1.1-2.2c0.2-0.8,0.4-1.6,0.4-2.4c0-0.8-0.1-1.7-0.4-2.5 c-0.3-0.8-0.6-1.6-1.2-2.3s-1.2-1.3-2-1.7C446,79.4,445.1,79.2,444,79.2z"></path> <path d="M464.4,78c1.3,0,2.4,0.2,3.4,0.6c1,0.4,1.9,1,2.6,1.7c0.7,0.7,1.3,1.6,1.7,2.6c0.4,1,0.6,2.1,0.6,3.2 c0,1.2-0.2,2.4-0.6,3.4c-0.4,1-1,1.9-1.8,2.6c-0.8,0.7-1.7,1.3-2.7,1.7c-1,0.4-2.2,0.6-3.4,0.6c-1.3,0-2.4-0.2-3.5-0.7 c-1-0.5-1.9-1.2-2.6-2c-0.7-0.9-1.3-1.9-1.6-3.1c-0.4-1.2-0.6-2.5-0.6-3.8c0-0.8,0-1.5,0.1-2.2c0.1-0.7,0.2-1.3,0.4-1.9 c0.2-0.6,0.4-1.2,0.7-1.8c0.3-0.6,0.6-1.2,1-1.8c1.1-1.7,2.4-3,4-4c1.6-1,3.2-1.4,4.9-1.4h4.8l-1.5,2.4h-4c-0.8,0-1.6,0.1-2.4,0.4 c-0.8,0.3-1.6,0.7-2.3,1.3c-0.7,0.6-1.4,1.3-1.9,2.1c-0.6,0.8-1,1.7-1.3,2.8c0.7-0.8,1.5-1.5,2.4-2C461.7,78.2,462.9,78,464.4,78z M464.6,93.2c0.9-0.1,1.8-0.3,2.5-0.7c0.7-0.4,1.3-0.9,1.8-1.5c0.5-0.6,0.8-1.3,1.1-2.1c0.2-0.8,0.4-1.6,0.4-2.4 c0-0.9-0.2-1.8-0.5-2.7c-0.3-0.9-0.7-1.6-1.3-2.3c-0.6-0.7-1.2-1.2-2-1.6c-0.8-0.4-1.6-0.6-2.6-0.6c-0.9,0-1.7,0.2-2.4,0.6 c-0.7,0.4-1.3,0.9-1.8,1.5c-0.5,0.6-0.8,1.4-1.1,2.2c-0.2,0.8-0.4,1.6-0.4,2.4c0,0.8,0.1,1.6,0.4,2.5c0.3,0.8,0.7,1.6,1.3,2.3 c0.5,0.7,1.2,1.2,2,1.7C462.8,92.9,463.6,93.2,464.6,93.2z"></path> <path d="M501.2,93v4.6h-0.4c-0.1-0.3-0.2-0.7-0.3-1c-0.2-0.4-0.4-0.8-0.7-1.1c-0.3-0.4-0.6-0.7-1-0.9s-0.7-0.4-1.1-0.4h-21.5v-0.4 c0.2,0,0.3-0.1,0.5-0.2c0.1-0.2,0.2-0.3,0.3-0.5c0.1-0.2,0.1-0.4,0.2-0.6s0.1-0.4,0.1-0.6V80.7c0-0.2,0-0.4-0.1-0.6 c0-0.3-0.1-0.5-0.2-0.7c-0.1-0.2-0.2-0.4-0.4-0.5c-0.2-0.2-0.3-0.2-0.5-0.2v-0.4h4.7v0.4c-0.2,0-0.4,0.1-0.5,0.2 c-0.2,0.2-0.3,0.3-0.4,0.5c-0.1,0.2-0.2,0.4-0.2,0.7c0,0.3-0.1,0.5-0.1,0.6V93h6.9V80.7c0-0.2,0-0.4-0.1-0.6c0-0.3-0.1-0.5-0.2-0.7 s-0.2-0.4-0.4-0.5c-0.1-0.2-0.3-0.2-0.5-0.2v-0.4h4.7v0.4c-0.2,0-0.4,0.1-0.5,0.2c-0.2,0.1-0.3,0.3-0.4,0.5S489,79.7,489,80 c-0.1,0.2-0.1,0.4-0.1,0.6V93h6.9V80.7c0-0.2,0-0.4-0.1-0.6c0-0.3-0.1-0.5-0.2-0.7s-0.2-0.4-0.4-0.5c-0.2-0.2-0.3-0.2-0.6-0.2v-0.4 h4.8v0.4c-0.2,0-0.4,0.1-0.6,0.2c-0.1,0.2-0.3,0.3-0.3,0.5s-0.2,0.4-0.2,0.7c0,0.3-0.1,0.5-0.1,0.6v10.2c0,0.2,0,0.4,0,0.6 c0,0.2,0.1,0.5,0.1,0.7c0.1,0.2,0.2,0.4,0.3,0.6c0.1,0.2,0.3,0.2,0.6,0.2H501.2z"></path> <path d="M518.9,91.7c0,0.2,0,0.4,0.1,0.7c0.1,0.2,0.1,0.5,0.2,0.7c0.1,0.2,0.2,0.4,0.4,0.5c0.2,0.2,0.3,0.2,0.5,0.2v0.4h-4.9v-0.4 c0.2,0,0.3-0.1,0.5-0.2s0.3-0.3,0.4-0.5c0.1-0.2,0.2-0.4,0.2-0.7c0-0.2,0.1-0.5,0.1-0.7v-9.1l-9,8.9v0.3c0,0.2,0,0.4,0.1,0.7 c0.1,0.2,0.1,0.5,0.2,0.7c0.1,0.2,0.2,0.4,0.4,0.5s0.3,0.2,0.5,0.2v0.4h-4.8v-0.4c0.2,0,0.3-0.1,0.5-0.2c0.2-0.1,0.3-0.3,0.4-0.5 c0.1-0.2,0.2-0.4,0.2-0.7c0.1-0.2,0.1-0.5,0.1-0.7V80.6c0-0.2,0-0.4-0.1-0.6s-0.1-0.4-0.2-0.6c-0.1-0.2-0.2-0.4-0.4-0.5 c-0.2-0.1-0.3-0.2-0.5-0.2v-0.4h4.8v0.4c-0.2,0-0.4,0.1-0.5,0.2c-0.1,0.1-0.3,0.3-0.3,0.5c-0.1,0.2-0.2,0.4-0.2,0.6 s-0.1,0.4-0.1,0.6v9.1l9-8.9v-0.2c0-0.2,0-0.4-0.1-0.6c-0.1-0.2-0.1-0.4-0.2-0.6c-0.1-0.2-0.2-0.4-0.4-0.5 c-0.2-0.1-0.3-0.2-0.5-0.2v-0.4h4.9v0.4c-0.2,0-0.4,0.1-0.6,0.2c-0.2,0.1-0.3,0.3-0.4,0.5c-0.1,0.2-0.2,0.4-0.2,0.6 c-0.1,0.2-0.1,0.4-0.1,0.6V91.7z"></path> <path d="M527.5,91.7c0,0.2,0,0.4,0.1,0.7c0.1,0.2,0.1,0.5,0.2,0.7c0.1,0.2,0.2,0.4,0.4,0.5s0.3,0.2,0.5,0.2v0.4h-4.8v-0.4 c0.2,0,0.3-0.1,0.5-0.2s0.3-0.3,0.4-0.5c0.1-0.2,0.2-0.4,0.2-0.7c0.1-0.2,0.1-0.5,0.1-0.7V80.6c0-0.2,0-0.4-0.1-0.6 s-0.1-0.4-0.2-0.6c-0.1-0.2-0.2-0.4-0.4-0.5c-0.1-0.1-0.3-0.2-0.5-0.2v-0.4h4.8v0.4c-0.2,0-0.4,0.1-0.5,0.2 c-0.1,0.1-0.3,0.3-0.3,0.5c-0.1,0.2-0.2,0.4-0.2,0.6s-0.1,0.4-0.1,0.6v4.6h8.7v-4.6c0-0.2,0-0.4-0.1-0.6c-0.1-0.2-0.1-0.4-0.2-0.6 c-0.1-0.2-0.2-0.4-0.3-0.5c-0.1-0.1-0.3-0.2-0.5-0.2v-0.4h4.8v0.4c-0.2,0-0.4,0.1-0.5,0.2c-0.1,0.1-0.3,0.3-0.4,0.5 c-0.1,0.2-0.2,0.4-0.2,0.6s-0.1,0.4-0.1,0.6v11.1c0,0.2,0,0.4,0.1,0.7c0.1,0.2,0.1,0.5,0.2,0.7c0.1,0.2,0.2,0.4,0.4,0.5 c0.1,0.2,0.3,0.2,0.5,0.2v0.4H535v-0.4c0.2,0,0.3-0.1,0.5-0.2c0.1-0.1,0.3-0.3,0.4-0.5c0.1-0.2,0.2-0.4,0.2-0.7 c0-0.2,0.1-0.5,0.1-0.7v-5.3h-8.7V91.7z"></path> <path d="M549.5,85.2c2.3,0,4.1,0.4,5.2,1.3c1.1,0.9,1.7,1.9,1.7,3.2c0,0.6-0.1,1.2-0.4,1.8c-0.3,0.6-0.7,1-1.3,1.4s-1.3,0.7-2.2,1 c-0.9,0.2-1.9,0.4-3.2,0.4h-6.5v-0.4c0.2,0,0.3-0.1,0.5-0.2c0.2-0.1,0.3-0.3,0.4-0.5c0.1-0.2,0.2-0.4,0.2-0.7 c0.1-0.2,0.1-0.5,0.1-0.7V80.6c0-0.2,0-0.4-0.1-0.6s-0.1-0.4-0.2-0.6c-0.1-0.2-0.2-0.4-0.4-0.5c-0.2-0.1-0.3-0.2-0.5-0.2v-0.4h4.9 v0.4c-0.4,0-0.7,0.2-0.9,0.7c-0.2,0.5-0.3,0.9-0.3,1.3v4.6H549.5z M549.2,93c1.7,0,2.9-0.3,3.6-0.8c0.7-0.5,1.1-1.2,1.1-2 c0-0.5-0.1-0.9-0.3-1.4c-0.2-0.4-0.5-0.8-0.9-1.2c-0.4-0.3-0.9-0.6-1.5-0.8c-0.6-0.2-1.3-0.3-2.1-0.3h-2.6V93H549.2z M558.5,94.2 v-0.4c0.2,0,0.3-0.1,0.5-0.2c0.2-0.1,0.3-0.3,0.4-0.5c0.1-0.2,0.2-0.4,0.2-0.7c0.1-0.2,0.1-0.5,0.1-0.7V80.6c0-0.2,0-0.4-0.1-0.6 s-0.1-0.4-0.2-0.6c-0.1-0.2-0.2-0.4-0.4-0.5c-0.2-0.1-0.3-0.2-0.5-0.2v-0.4h4.9v0.4c-0.4,0-0.7,0.2-0.9,0.7 c-0.2,0.5-0.3,0.9-0.3,1.3v11.1c0,0.2,0,0.4,0.1,0.7c0.1,0.2,0.1,0.5,0.2,0.7c0.1,0.2,0.2,0.4,0.4,0.5c0.2,0.2,0.3,0.2,0.5,0.2v0.4 H558.5z"></path> <path d="M591.1,92.8c-0.2,0-0.4,0-0.6,0.1c-0.2,0.1-0.4,0.2-0.6,0.3c-0.4,0.3-1,0.5-1.7,0.8c-0.7,0.3-1.6,0.4-2.7,0.4 c-1.3,0-2.5-0.2-3.6-0.6c-1.1-0.4-2-1-2.8-1.7c-0.8-0.7-1.4-1.6-1.8-2.6c-0.4-1-0.6-2.1-0.6-3.2c0-1.1,0.2-2.1,0.6-3.1 c0.4-1,1-1.9,1.7-2.6c0.7-0.8,1.6-1.4,2.7-1.8c1.1-0.5,2.3-0.7,3.7-0.7c0.9,0,1.7,0.1,2.3,0.3s1.1,0.4,1.5,0.6 c0.2,0.1,0.4,0.2,0.7,0.3c0.2,0.1,0.4,0.1,0.7,0.1v2.9h-0.4c-0.1-0.5-0.4-0.9-0.7-1.3c-0.3-0.4-0.7-0.7-1.1-0.9 c-0.4-0.3-0.9-0.4-1.4-0.6c-0.5-0.1-1-0.2-1.5-0.2c-1,0-2,0.2-2.7,0.6s-1.4,0.8-1.9,1.4c-0.5,0.6-0.9,1.3-1.1,2 c-0.3,0.8-0.4,1.5-0.4,2.4c0,0.9,0.1,1.9,0.4,2.8c0.3,0.9,0.7,1.7,1.3,2.4c0.5,0.7,1.2,1.3,2,1.7c0.8,0.4,1.7,0.6,2.7,0.6 c0.7,0,1.4-0.1,2-0.3c0.6-0.2,1.1-0.5,1.6-0.8c0.4-0.3,0.8-0.7,1.1-1.1c0.3-0.4,0.4-0.8,0.5-1.1h0.4V92.8z"></path> <path d="M606.5,82c0,0.4-0.1,0.8-0.3,1.2c-0.2,0.4-0.4,0.7-0.7,1c-0.3,0.3-0.6,0.6-0.9,0.8c-0.4,0.2-0.7,0.4-1,0.6 c0.4,0.1,0.9,0.2,1.3,0.4c0.5,0.2,0.9,0.5,1.3,0.8c0.4,0.3,0.7,0.7,1,1.2c0.3,0.5,0.4,1.1,0.4,1.8c0,0.4-0.1,0.8-0.2,1.3 s-0.5,1-0.9,1.4c-0.4,0.4-1,0.8-1.7,1.1c-0.7,0.3-1.7,0.5-2.8,0.5h-8.4v-0.4c0.2,0,0.4-0.1,0.5-0.2c0.2-0.2,0.3-0.3,0.4-0.5 c0.1-0.2,0.2-0.4,0.2-0.7c0.1-0.2,0.1-0.5,0.1-0.7V80.6c0-0.4-0.1-0.8-0.3-1.3c-0.2-0.5-0.5-0.7-0.9-0.7v-0.4h7.8 c0.9,0,1.7,0.1,2.3,0.4c0.6,0.2,1.2,0.5,1.6,0.9c0.4,0.4,0.7,0.8,0.9,1.2C606.4,81.2,606.5,81.6,606.5,82z M597.3,85.2h2.9 c0.7,0,1.3-0.1,1.8-0.2c0.5-0.2,0.9-0.4,1.2-0.7c0.3-0.3,0.5-0.6,0.7-1c0.1-0.4,0.2-0.7,0.2-1.1c0-0.3-0.1-0.6-0.3-1 c-0.2-0.3-0.4-0.6-0.8-0.9c-0.3-0.3-0.8-0.5-1.2-0.7c-0.5-0.2-1-0.3-1.6-0.3h-2.9V85.2z M601,93c0.3,0,0.7,0,1.2-0.1 c0.5-0.1,0.9-0.2,1.4-0.4c0.4-0.2,0.8-0.5,1.1-1c0.3-0.4,0.5-1,0.5-1.7c0-0.7-0.2-1.3-0.6-1.8c-0.4-0.5-0.9-0.8-1.5-1 c-0.6-0.2-1.2-0.4-1.8-0.5c-0.6-0.1-1.1-0.1-1.4-0.1h-2.5V93H601z"></path> <path d="M623,91.7c0,0.2,0,0.4,0.1,0.7c0,0.2,0.1,0.5,0.2,0.7c0.1,0.2,0.2,0.4,0.4,0.5c0.1,0.1,0.3,0.2,0.5,0.2v0.4h-4.9v-0.4 c0.2,0,0.3-0.1,0.5-0.2c0.2-0.2,0.3-0.3,0.4-0.5c0.1-0.2,0.2-0.4,0.2-0.7c0.1-0.2,0.1-0.5,0.1-0.7v-5.3c-0.3,0.1-0.6,0.2-1,0.4 c-0.4,0.2-0.7,0.5-1.1,0.9c-0.4,0.4-0.7,0.8-1.1,1.2c-0.4,0.4-0.7,0.9-1,1.3c-0.3,0.4-0.5,0.6-0.6,0.9c-0.2,0.2-0.3,0.4-0.5,0.6 c-0.3,0.3-0.5,0.6-0.8,0.9c-0.3,0.3-0.5,0.6-0.9,0.8c-0.3,0.2-0.7,0.4-1.1,0.5c-0.4,0.1-0.9,0.2-1.5,0.2h-1.4v-0.4 c0.3,0,0.6-0.1,0.9-0.3c0.3-0.2,0.6-0.4,0.9-0.7c0.3-0.3,0.6-0.6,0.9-0.9c0.3-0.3,0.5-0.6,0.7-0.9l1.2-1.6c0.4-0.6,0.9-1.2,1.3-1.7 c0.5-0.6,1-1,1.6-1.3c-0.9,0-1.7-0.2-2.4-0.4s-1.3-0.5-1.8-0.9s-0.8-0.8-1.1-1.3c-0.2-0.5-0.4-1-0.4-1.6c0-0.5,0.1-1,0.4-1.5 c0.2-0.5,0.6-0.9,1.2-1.3c0.5-0.4,1.2-0.7,2-0.9c0.8-0.2,1.8-0.3,3-0.3h6.3v0.4c-0.2,0-0.4,0.1-0.5,0.2c-0.1,0.1-0.3,0.3-0.4,0.5 c-0.1,0.2-0.2,0.4-0.2,0.6c-0.1,0.2-0.1,0.4-0.1,0.6V91.7z M613.9,82c0,0.4,0.1,0.8,0.4,1.1c0.2,0.4,0.6,0.7,1,1 c0.4,0.3,0.9,0.6,1.4,0.7c0.5,0.2,1.1,0.3,1.7,0.3h2.1v-5.7H618c-1.5,0-2.6,0.2-3.2,0.7C614.2,80.6,613.9,81.3,613.9,82z"></path> <path d="M640.7,82.2c0-0.3-0.1-0.6-0.2-0.9c-0.1-0.3-0.3-0.6-0.5-0.9c-0.2-0.3-0.5-0.5-0.8-0.7c-0.3-0.2-0.7-0.3-1.1-0.3h-3.3v12.2 c0,0.2,0,0.4,0.1,0.6c0.1,0.2,0.1,0.5,0.2,0.7c0.1,0.2,0.2,0.4,0.4,0.6c0.1,0.2,0.3,0.2,0.5,0.2v0.4h-4.9v-0.4 c0.2,0,0.4-0.1,0.5-0.2s0.3-0.3,0.4-0.5c0.1-0.2,0.2-0.4,0.2-0.7c0-0.2,0.1-0.5,0.1-0.7V79.5h-3.3c-0.4,0-0.8,0.1-1.1,0.3 c-0.3,0.2-0.6,0.4-0.7,0.7c-0.2,0.3-0.3,0.6-0.4,0.9c-0.1,0.3-0.2,0.6-0.2,0.9h-0.4v-4h14.6v4H640.7z"></path> <path d="M651.2,94.5c-1.3,0-2.4-0.2-3.4-0.6c-1-0.4-1.9-1-2.6-1.7c-0.7-0.7-1.3-1.6-1.7-2.6c-0.4-1-0.6-2.1-0.6-3.2 c0-1.2,0.2-2.4,0.6-3.4s1-1.9,1.8-2.6c0.8-0.7,1.7-1.3,2.7-1.7c1-0.4,2.2-0.6,3.4-0.6s2.3,0.2,3.3,0.6c1,0.4,1.9,0.9,2.6,1.7 c0.7,0.7,1.3,1.6,1.7,2.5c0.4,1,0.6,2,0.6,3.2c0,1.1-0.2,2.1-0.6,3.2c-0.4,1-0.9,1.9-1.6,2.7c-0.7,0.8-1.6,1.4-2.7,1.9 C653.8,94.2,652.6,94.5,651.2,94.5z M651,79.2c-0.9,0.1-1.7,0.3-2.4,0.7c-0.7,0.4-1.3,0.9-1.7,1.5c-0.5,0.6-0.8,1.3-1.1,2.1 c-0.2,0.8-0.4,1.6-0.4,2.4c0,0.9,0.1,1.8,0.4,2.7c0.3,0.9,0.7,1.7,1.3,2.3s1.2,1.2,2,1.6c0.8,0.4,1.6,0.6,2.5,0.6 c0.9,0,1.8-0.2,2.5-0.6c0.7-0.4,1.3-0.9,1.8-1.6c0.5-0.6,0.8-1.4,1.1-2.2c0.2-0.8,0.4-1.6,0.4-2.4c0-0.8-0.1-1.7-0.4-2.5 c-0.3-0.8-0.6-1.6-1.2-2.3s-1.2-1.3-2-1.7C653,79.4,652,79.2,651,79.2z"></path> <path d="M674.9,78.3v3.9h-0.4c0-0.3-0.1-0.6-0.2-0.9c-0.1-0.3-0.3-0.6-0.5-0.9c-0.2-0.3-0.5-0.5-0.8-0.7c-0.3-0.2-0.7-0.3-1.1-0.3 h-5.1v12.3c0,0.2,0,0.4,0.1,0.6c0.1,0.2,0.2,0.4,0.3,0.6c0.1,0.2,0.2,0.4,0.4,0.5c0.2,0.1,0.3,0.2,0.5,0.2v0.4h-5.1v-0.4 c0.2,0,0.4-0.1,0.5-0.2c0.2-0.1,0.3-0.3,0.4-0.5c0.1-0.2,0.2-0.4,0.2-0.6c0.1-0.2,0.1-0.4,0.1-0.6V80.6c0-0.2,0-0.4-0.1-0.6 c-0.1-0.2-0.1-0.4-0.2-0.6c-0.1-0.2-0.2-0.4-0.4-0.5c-0.2-0.1-0.3-0.2-0.5-0.2v-0.4H674.9z"></path> <path d="M685,94.5c-1.3,0-2.4-0.2-3.4-0.6c-1-0.4-1.9-1-2.6-1.7c-0.7-0.7-1.3-1.6-1.7-2.6c-0.4-1-0.6-2.1-0.6-3.2 c0-1.2,0.2-2.4,0.6-3.4s1-1.9,1.8-2.6c0.8-0.7,1.7-1.3,2.7-1.7c1-0.4,2.2-0.6,3.4-0.6s2.3,0.2,3.3,0.6c1,0.4,1.9,0.9,2.6,1.7 c0.7,0.7,1.3,1.6,1.7,2.5c0.4,1,0.6,2,0.6,3.2c0,1.1-0.2,2.1-0.6,3.2c-0.4,1-0.9,1.9-1.6,2.7c-0.7,0.8-1.6,1.4-2.7,1.9 C687.6,94.2,686.4,94.5,685,94.5z M684.7,79.2c-0.9,0.1-1.7,0.3-2.4,0.7c-0.7,0.4-1.3,0.9-1.7,1.5c-0.5,0.6-0.8,1.3-1.1,2.1 c-0.2,0.8-0.4,1.6-0.4,2.4c0,0.9,0.1,1.8,0.4,2.7c0.3,0.9,0.7,1.7,1.3,2.3s1.2,1.2,2,1.6c0.8,0.4,1.6,0.6,2.5,0.6 c0.9,0,1.8-0.2,2.5-0.6c0.7-0.4,1.3-0.9,1.8-1.6c0.5-0.6,0.8-1.4,1.1-2.2c0.2-0.8,0.4-1.6,0.4-2.4c0-0.8-0.1-1.7-0.4-2.5 c-0.3-0.8-0.6-1.6-1.2-2.3s-1.2-1.3-2-1.7C686.7,79.4,685.8,79.2,684.7,79.2z"></path> <path d="M712.8,68.7c2.3,0,4.4,0.3,6.1,1c1.7,0.7,3.1,1.6,4.2,2.8c1.1,1.1,1.9,2.4,2.5,3.9c0.5,1.5,0.8,3,0.8,4.5 c0,1.9-0.4,3.7-1.1,5.4c-0.7,1.7-1.7,3.1-2.9,4.4s-2.7,2.2-4.4,3c-1.7,0.7-3.5,1.1-5.4,1.1c-1.2,0-2.2-0.1-3.1-0.3 c-0.8-0.2-1.5-0.4-2.1-0.6c-0.3-0.1-0.6-0.2-0.9-0.3c-0.3-0.1-0.6-0.1-0.8-0.1v-3.9h0.4c0.3,0.9,0.7,1.5,1.3,2.1 c0.6,0.5,1.2,0.9,1.8,1.2c0.6,0.3,1.3,0.4,2,0.5c0.7,0.1,1.2,0.1,1.7,0.1c1.6,0,3.1-0.3,4.4-1c1.3-0.7,2.5-1.5,3.4-2.6 c1-1.1,1.7-2.4,2.3-3.8s0.8-3,0.9-4.5H714c-0.6,0-1.1,0.2-1.5,0.5c-0.4,0.3-0.6,0.7-0.6,1.2h-0.3v-4.8h0.3c0,0.5,0.2,0.9,0.6,1.3 c0.4,0.4,0.9,0.5,1.5,0.5h9.8c-0.2-1.2-0.5-2.4-1-3.6c-0.5-1.2-1.3-2.3-2.2-3.2s-2.1-1.7-3.4-2.3c-1.3-0.6-2.9-0.9-4.6-0.9 c-0.6,0-1.2,0-1.8,0.1c-0.6,0.1-1.1,0.2-1.7,0.5c-0.5,0.2-0.9,0.6-1.3,1.1c-0.4,0.5-0.6,1.1-0.8,1.9h-0.4v-3.9c0.3,0,0.6,0,0.9-0.1 c0.3-0.1,0.6-0.1,1-0.2c0.5-0.2,1.1-0.3,1.8-0.5S711.8,68.7,712.8,68.7z"></path> <path d="M741.4,78.3v3.9H741c0-0.3-0.1-0.6-0.2-0.9c-0.1-0.3-0.3-0.6-0.5-0.9c-0.2-0.3-0.5-0.5-0.8-0.7c-0.3-0.2-0.7-0.3-1.1-0.3 h-5.1v12.3c0,0.2,0,0.4,0.1,0.6c0.1,0.2,0.2,0.4,0.3,0.6c0.1,0.2,0.2,0.4,0.4,0.5c0.2,0.1,0.3,0.2,0.5,0.2v0.4h-5.1v-0.4 c0.2,0,0.4-0.1,0.5-0.2c0.2-0.1,0.3-0.3,0.4-0.5c0.1-0.2,0.2-0.4,0.2-0.6c0.1-0.2,0.1-0.4,0.1-0.6V80.6c0-0.2,0-0.4-0.1-0.6 c-0.1-0.2-0.1-0.4-0.2-0.6c-0.1-0.2-0.2-0.4-0.4-0.5c-0.2-0.1-0.3-0.2-0.5-0.2v-0.4H741.4z"></path> <path d="M758.7,91.7c0,0.2,0,0.4,0.1,0.7c0.1,0.2,0.1,0.5,0.2,0.7c0.1,0.2,0.2,0.4,0.4,0.5c0.2,0.2,0.3,0.2,0.5,0.2v0.4h-4.9v-0.4 c0.2,0,0.3-0.1,0.5-0.2s0.3-0.3,0.4-0.5c0.1-0.2,0.2-0.4,0.2-0.7c0-0.2,0.1-0.5,0.1-0.7v-9.1l-9,8.9v0.3c0,0.2,0,0.4,0.1,0.7 c0.1,0.2,0.1,0.5,0.2,0.7c0.1,0.2,0.2,0.4,0.4,0.5s0.3,0.2,0.5,0.2v0.4h-4.8v-0.4c0.2,0,0.3-0.1,0.5-0.2c0.2-0.1,0.3-0.3,0.4-0.5 c0.1-0.2,0.2-0.4,0.2-0.7c0.1-0.2,0.1-0.5,0.1-0.7V80.6c0-0.2,0-0.4-0.1-0.6s-0.1-0.4-0.2-0.6c-0.1-0.2-0.2-0.4-0.4-0.5 c-0.2-0.1-0.3-0.2-0.5-0.2v-0.4h4.8v0.4c-0.2,0-0.4,0.1-0.5,0.2c-0.1,0.1-0.3,0.3-0.3,0.5c-0.1,0.2-0.2,0.4-0.2,0.6 s-0.1,0.4-0.1,0.6v9.1l9-8.9v-0.2c0-0.2,0-0.4-0.1-0.6c-0.1-0.2-0.1-0.4-0.2-0.6c-0.1-0.2-0.2-0.4-0.4-0.5 c-0.2-0.1-0.3-0.2-0.5-0.2v-0.4h4.9v0.4c-0.2,0-0.4,0.1-0.6,0.2c-0.2,0.1-0.3,0.3-0.4,0.5c-0.1,0.2-0.2,0.4-0.2,0.6 c-0.1,0.2-0.1,0.4-0.1,0.6V91.7z"></path> <path d="M780.5,93v4.6h-0.4c-0.1-0.3-0.1-0.7-0.3-1c-0.1-0.4-0.3-0.8-0.5-1.1c-0.2-0.4-0.5-0.7-0.8-0.9c-0.3-0.2-0.7-0.4-1.1-0.4 h-12.1c-0.4,0-0.8,0.1-1.1,0.4c-0.3,0.2-0.6,0.5-0.9,0.9c-0.2,0.4-0.4,0.7-0.6,1.1c-0.1,0.4-0.2,0.7-0.2,1h-0.4V93h1.4 c0.2,0,0.3-0.1,0.4-0.2c0.1-0.1,0.3-0.3,0.4-0.5c0.1-0.2,0.3-0.4,0.4-0.6c0.1-0.2,0.2-0.4,0.3-0.6c0.4-0.9,0.8-1.9,1.4-3.1 c0.5-1.2,1.1-2.4,1.7-3.7c0.6-1.3,1.1-2.5,1.7-3.7c0.5-1.2,1-2.2,1.4-3.1l6.4,14.1c0.2,0.4,0.4,0.8,0.6,1c0.2,0.2,0.4,0.4,0.7,0.4 H780.5z M765.7,93h9.9l-4.9-10.9L765.7,93z"></path> <path d="M795.6,91.7c0,0.2,0,0.4,0.1,0.7c0.1,0.2,0.1,0.5,0.2,0.7c0.1,0.2,0.2,0.4,0.4,0.5c0.2,0.2,0.3,0.2,0.5,0.2v0.4H792v-0.4 c0.2,0,0.3-0.1,0.5-0.2s0.3-0.3,0.4-0.5c0.1-0.2,0.2-0.4,0.2-0.7c0-0.2,0.1-0.5,0.1-0.7v-9.1l-9,8.9v0.3c0,0.2,0,0.4,0.1,0.7 c0.1,0.2,0.1,0.5,0.2,0.7c0.1,0.2,0.2,0.4,0.4,0.5s0.3,0.2,0.5,0.2v0.4h-4.8v-0.4c0.2,0,0.3-0.1,0.5-0.2c0.2-0.1,0.3-0.3,0.4-0.5 c0.1-0.2,0.2-0.4,0.2-0.7c0.1-0.2,0.1-0.5,0.1-0.7V80.6c0-0.2,0-0.4-0.1-0.6s-0.1-0.4-0.2-0.6c-0.1-0.2-0.2-0.4-0.4-0.5 c-0.2-0.1-0.3-0.2-0.5-0.2v-0.4h4.8v0.4c-0.2,0-0.4,0.1-0.5,0.2c-0.1,0.1-0.3,0.3-0.3,0.5c-0.1,0.2-0.2,0.4-0.2,0.6 s-0.1,0.4-0.1,0.6v9.1l9-8.9v-0.2c0-0.2,0-0.4-0.1-0.6c-0.1-0.2-0.1-0.4-0.2-0.6c-0.1-0.2-0.2-0.4-0.4-0.5 c-0.2-0.1-0.3-0.2-0.5-0.2v-0.4h4.9v0.4c-0.2,0-0.4,0.1-0.6,0.2c-0.2,0.1-0.3,0.3-0.4,0.5c-0.1,0.2-0.2,0.4-0.2,0.6 c-0.1,0.2-0.1,0.4-0.1,0.6V91.7z"></path> <path d="M812.6,91.7c0,0.2,0,0.4,0.1,0.7c0,0.2,0.1,0.5,0.2,0.7c0.1,0.2,0.2,0.4,0.4,0.5c0.1,0.1,0.3,0.2,0.5,0.2v0.4h-4.9v-0.4 c0.2,0,0.3-0.1,0.5-0.2c0.2-0.2,0.3-0.3,0.4-0.5c0.1-0.2,0.2-0.4,0.2-0.7c0.1-0.2,0.1-0.5,0.1-0.7v-5.3c-0.3,0.1-0.6,0.2-1,0.4 c-0.4,0.2-0.7,0.5-1.1,0.9c-0.4,0.4-0.7,0.8-1.1,1.2c-0.4,0.4-0.7,0.9-1,1.3c-0.3,0.4-0.5,0.6-0.6,0.9c-0.2,0.2-0.3,0.4-0.5,0.6 c-0.3,0.3-0.5,0.6-0.8,0.9c-0.3,0.3-0.5,0.6-0.9,0.8c-0.3,0.2-0.7,0.4-1.1,0.5c-0.4,0.1-0.9,0.2-1.5,0.2h-1.4v-0.4 c0.3,0,0.6-0.1,0.9-0.3c0.3-0.2,0.6-0.4,0.9-0.7c0.3-0.3,0.6-0.6,0.9-0.9c0.3-0.3,0.5-0.6,0.7-0.9l1.2-1.6c0.4-0.6,0.9-1.2,1.3-1.7 c0.5-0.6,1-1,1.6-1.3c-0.9,0-1.7-0.2-2.4-0.4s-1.3-0.5-1.8-0.9s-0.8-0.8-1.1-1.3c-0.2-0.5-0.4-1-0.4-1.6c0-0.5,0.1-1,0.4-1.5 c0.2-0.5,0.6-0.9,1.2-1.3c0.5-0.4,1.2-0.7,2-0.9c0.8-0.2,1.8-0.3,3-0.3h6.3v0.4c-0.2,0-0.4,0.1-0.5,0.2c-0.1,0.1-0.3,0.3-0.4,0.5 c-0.1,0.2-0.2,0.4-0.2,0.6c-0.1,0.2-0.1,0.4-0.1,0.6V91.7z M803.5,82c0,0.4,0.1,0.8,0.4,1.1c0.2,0.4,0.6,0.7,1,1 c0.4,0.3,0.9,0.6,1.4,0.7c0.5,0.2,1.1,0.3,1.7,0.3h2.1v-5.7h-2.5c-1.5,0-2.6,0.2-3.2,0.7C803.8,80.6,803.5,81.3,803.5,82z"></path> </g> </svg> 